<?xml version="1.0" encoding="utf-8"?>
<!-- Generator: Adobe Illustrator 16.0.0, SVG Export Plug-In . SVG Version: 6.00 Build 0)  -->
<!DOCTYPE svg PUBLIC "-//W3C//DTD SVG 1.1//EN" "http://www.w3.org/Graphics/SVG/1.1/DTD/svg11.dtd">
<svg version="1.1" id="Layer_1" xmlns="http://www.w3.org/2000/svg" xmlns:xlink="http://www.w3.org/1999/xlink" x="0px" y="0px"
	 width="442.28px" height="166.069px" viewBox="0 0 442.28 166.069" enable-background="new 0 0 442.28 166.069"
	 xml:space="preserve">
<g>
	<path fill="#00334E" d="M39.861,94.158c0.008,0.205,0.014,0.414,0.016,0.637c0.085,9.266-5.209,21.15-9.614,29.115
		c-3.389,6.126-5.67,12.766-8.207,19.262c-1.367,3.496-2.125,7.029-3.033,10.66c-0.812,3.264-0.918,7.508-3.004,10.296
		c-1.748,2.331-4.964,3.009-5.872-0.49c-0.864-3.329,0.559-6.763,1.635-9.862c1.153-3.318,2.26-6.641,3.5-9.92
		c2.674-7.09,5.686-14.05,8.777-20.959c1.75-3.909,3.53-7.811,5.29-11.729c0.884-1.962,2.346-4.417,2.372-6.607
		c0.04-3.574-3.737-1.916-5.541-0.875c-4.122,2.379-10.293,3.908-15.05,3.434c-4.947-0.498-7.616-4.82-9.315-8.97
		C0.6,95.172-1.902,88.934,2.5,87.116c3.612-1.497,4.07,5.881,4.738,7.819c1.267,3.681,4.385,6.842,8.467,6.967
		c5.814,0.18,11.429-4.924,15.902-8.205C35.331,90.971,39.542,87.849,39.861,94.158z"/>
	<path fill="#00334E" d="M124.449,102.221c0.523,4.213-4.539,6.568-7.81,7.623c-2.306,0.744-4.621,1.472-7.015,1.873
		c-2.289,0.383-4.611,0.611-6.852,1.234c-1.97,0.547-3.568,1.979-5.588,2.404c-1.862,0.395-3.328-0.939-3.042-2.854
		c0.396-2.649,4.457-4.261,6.602-5.13c2.617-1.061,5.444-1.69,8.205-2.23c2.148-0.425,4.871-0.417,6.546-2.039
		c2.717-2.639-2.995-4.789-4.733-5.43c-3.609-1.338-7.214-2.688-10.803-4.078c-5.676-2.189-8.515-4.652-8.515-7.394
		c0-3.557,3.552-5.334,10.669-5.334c2.709,0,6.185,0.31,10.429,0.927c2.546,0.374,5.39,0.695,7.834,1.564
		c2.349,0.834,1.415,2.145-0.701,2.243c-3.29,0.142-6.544,0.384-9.839,0.221c-1.593-0.079-6.59,0.008-7.866,0.96
		c-2.513,1.878,7.849,4.091,8.947,4.573c4.13,1.819,9.053,3.4,11.854,7.162C123.786,99.875,124.31,101.105,124.449,102.221z"/>
	<path fill="#3B6E8F" d="M344.688,101.289c-0.076,1.29-0.146,2.573-0.199,3.859c-0.078,1.939-0.128,3.874-0.201,5.808
		c-0.073,1.937-1.619,3.673-3.124,3.524c-1.489-0.139-1.826-1.783-1.931-3.369c-0.449-6.739-0.252-14.026,0.876-20.64
		c0.312-1.803,0.688-3.596,1.422-5.212c0.368-0.817,1.122-2.347,1.948-2.398c1.215-0.073,1.773,1.63,1.951,2.873
		c-0.021-0.115-0.048-0.232-0.065-0.347c0.591,2.476-0.038,5.051-0.161,7.552C345.071,95.729,344.86,98.509,344.688,101.289z"/>
	<path fill="#3B6E8F" d="M348.531,71.039c0.669,1.438,0.319,3.051-2.006,3.809c-4.003,1.301-8.257-5.305-2.933-6.478
		C345.588,67.931,347.752,69.366,348.531,71.039z"/>
	<path fill="#3B6E8F" d="M327.319,83.603c-1.793-0.397-3.663-0.438-5.489-0.537c-3.379-0.18-6.77-0.055-10.13,0.306
		c-3.035,0.33-6.209,0.727-8.916,2.403c-0.465,0.287-0.905,0.639-1.331,1.031c0.12-0.712,0.147-1.415-0.164-2.104
		c0.017,0.059,0.041,0.123,0.063,0.184c-0.177-0.658-0.736-1.552-1.954-1.514c-0.824,0.024-1.577,0.832-1.944,1.259
		c-0.736,0.854-1.112,1.796-1.422,2.745c-1.121,3.433-1.459,18.453-1.039,22.254c0.048,0.623,0.123,1.236,0.237,1.842
		c0.245,1.339,0.67,2.798,2.313,2.848c1.546,0.049,2.164-1.458,2.151-2.799c-0.058-5.65-1.03-11.395,2.388-16.389
		c1.055-1.545,2.461-2.814,4.098-3.737c4.505-2.546,9.924-3.043,15.002-3.04c3.148,0.003,6.128,0.965,9.208,1.51
		c1.083,0.19,2.081-0.038,2.439-1.194c0.042-0.122,0.065-0.253,0.092-0.4C333.432,84.99,329.396,84.066,327.319,83.603z"/>
	<path fill="#3B6E8F" d="M395.902,87.614c-0.086-0.722-0.274-1.422-0.626-2.068c-0.69-1.277-2.355-2.6-3.828-2.679
		c-2.16-0.106-4.898,1.125-6.828,1.989c-3.238,1.458-6.313,3.322-9.292,5.263c-5.255,3.393-10.277,7.18-15.077,11.35
		c-1.3,1.137-2.601,2.273-3.839,3.467c-0.071,0.064-0.131,0.123-0.192,0.189c0.057-0.516,0.121-1.031,0.169-1.555
		c0.124-1.333,0.747-2.709,0.158-4.034c0.023,0.061,0.04,0.126,0.063,0.188c-0.173-0.668-0.736-1.575-1.953-1.543
		c-0.826,0.033-1.578,0.85-1.946,1.284c-0.736,0.866-1.112,1.823-1.417,2.789c-1.135,3.532-1.325,7.431-0.881,11.03
		c0.105,0.843,0.441,1.728,1.931,1.801c1.028,0.059,2.065-0.367,2.646-0.966c0.559-0.343,1.059-0.728,1.402-1.071
		c1.234-1.243,2.379-2.617,3.516-3.941c2.667-3.1,5.473-6.102,8.554-8.783c3.296-2.862,7.104-5.029,10.931-7.076
		c1.455-0.773,2.939-1.485,4.412-2.229c1.218-0.614,2.738-1.472,4.153-1.211c1.821,0.327,1.702,2.208,1.521,3.621
		c-0.28,2.314-0.771,4.621-1.202,6.92c-0.257,1.365-0.501,2.73-0.743,4.096c-0.494,2.871-0.58,5.839,0.008,8.709
		c0.408,1.998,1.186,6.79,4.252,6.127c0.701-0.146,0.916-0.826,1.063-1.447c0.443-1.863,0.36-3.885,0.598-5.783
		c0.242-1.947,0.549-3.876,0.721-5.83c0.13-1.464,0.269-2.922,0.406-4.383c0.24-2.528,0.469-5.049,0.713-7.574
		C395.504,92.065,396.159,89.839,395.902,87.614z"/>
	<path fill="#3B6E8F" d="M242.008,96.187c-0.016-1.13-0.064-2.25-0.212-3.37c-0.222-1.716-0.573-3.825-2.076-4.908
		c-1.647-1.18-3.717-0.842-5.528-0.337c-3.403,0.94-6.75,2.016-9.819,3.8c-1.55,0.907-2.953,2.027-4.441,3.024
		c-1.766,1.186-3.647,2.199-5.47,3.296c-2.623,1.586-5.215,3.215-7.865,4.76c-0.918,0.531-3.091,1.562-3.944,0.49
		c-0.578-0.721-0.357-2.077-0.308-2.914c0.082-1.453,0.226-2.908,0.234-4.356c0.008-3.043-0.311-9.226-4.569-9.226
		c-2.227,0-4.369,1.227-6.176,2.404c-2.216,1.441-4.22,3.167-6.182,4.924c-2.821,2.545-5.608,5.119-8.47,7.619
		c-0.875,0.764-1.802,1.459-2.748,2.137c0.055-0.359,0.112-0.711,0.147-1.072c0.128-1.055,0.752-2.148,0.164-3.197
		c0.022,0.05,0.041,0.1,0.063,0.148c-0.172-0.532-0.736-1.251-1.952-1.219c-0.826,0.025-1.578,0.671-1.946,1.015
		c-0.736,0.687-1.112,1.447-1.417,2.208c-1.137,2.805-1.331,5.896-0.881,8.756c0.087,0.55,0.341,1.115,1.251,1.336
		c0.676,0.262,1.477,0.155,2.246-0.115c0.246-0.082,0.461-0.172,0.663-0.277c0.531-0.254,1.008-0.557,1.393-0.827
		c1.708-1.236,3.066-2.861,4.579-4.327c1.497-1.454,3.178-2.689,4.759-4.047c1.551-1.34,3.059-2.723,4.662-4.015
		c1.73-1.39,3.614-3.394,5.885-3.827c0.883-0.172,1.758,0.049,2.257,0.81c1.047,1.587,0.745,3.669,0.67,5.446
		c-0.104,2.396-1.249,5.201-0.316,7.539c0.54,1.35,1.805,2.324,3.138,2.83c1.529,0.582,2.911-0.008,4.245-0.784
		c0.599-0.353,1.156-0.776,1.736-1.171c3.424-2.347,7.104-4.391,10.637-6.582c1.843-1.137,3.691-2.258,5.556-3.354
		c1.783-1.045,3.563-2.094,5.376-3.091c1.601-0.875,3.253-1.987,5.078-2.325c1.479-0.275,2.459-0.332,2.944,1.333
		c1.153,3.896-0.397,8.409-0.397,12.384c0,2.56,0.503,5.201,2.025,7.32c0.817,1.137,1.716,1.432,2.989,0.859
		c1.234-0.549,1.541-1.334,1.516-2.627c-0.082-4.188,0.188-8.432,0.397-12.618C241.959,98.754,242.018,97.469,242.008,96.187z"/>
	<g>
		<g>
			<path fill="#00334E" d="M426.44,49.169c-1.381-0.308-3.043,0.593-3.672,1.946c-0.295,0.638-0.326,1.302-0.074,1.875
				c0.188,0.438,0.635,1.03,1.683,1.372c0.272,0.09,0.56,0.134,0.854,0.134c1.722,0,3.091-1.514,3.229-2.87
				C428.567,50.677,428.092,49.532,426.44,49.169z"/>
			<path fill="#00334E" d="M434.266,49.169c-1.382-0.308-3.043,0.593-3.68,1.946c-0.295,0.638-0.319,1.307-0.075,1.875
				c0.195,0.439,0.638,1.03,1.687,1.372c0.277,0.09,0.563,0.134,0.85,0.134c1.727,0,3.091-1.514,3.238-2.87
				C436.393,50.677,435.915,49.532,434.266,49.169z"/>
			<path fill="#00334E" d="M416.086,28.368c-0.525-0.199-1.168-0.172-1.798,0.055c-0.181,0.057-0.347,0.127-0.47,0.193
				c-0.319,0.15-0.643,0.341-0.904,0.534c-0.738,0.534-1.353,1.17-1.955,1.785c-0.229,0.24-0.461,0.48-0.696,0.712
				c-0.505,0.49-1.054,0.933-1.626,1.398c-0.336,0.274-0.679,0.553-1.006,0.834c-0.294,0.251-0.582,0.504-0.869,0.758
				c-0.562,0.499-1.125,0.994-1.717,1.467c-0.205,0.163-0.409,0.342-0.62,0.526c-0.752,0.641-1.521,1.303-2.316,1.455
				c-0.253,0.046-0.398-0.06-0.431-0.103c-0.36-0.541-0.311-1.355-0.262-2.141l0.022-0.426c0.011-0.384,0.093-0.813,0.171-1.265
				c0.183-1.027,0.385-2.194-0.055-3.29c-0.679-1.712-1.717-2.579-3.069-2.579c-1.673,0-3.351,1.382-4.831,2.601
				c-0.367,0.303-0.719,0.59-1.041,0.832c-4.683,3.504-16.566,11.655-25.666,11.655c-2.258,0-4.213-0.512-5.807-1.518
				c-3.772-2.38-1.45-8.655,0.081-12.81c0.196-0.515,0.369-0.995,0.516-1.421l0.171-0.477c0.59-1.682,1.27-3.587,0.762-5.517
				c-0.313-1.23-1.145-1.972-2.219-1.972c-0.904,0-1.836,0.532-2.5,1.421c-0.955,1.271-1.251,2.963-1.513,4.454
				c-0.093,0.554-0.188,1.094-0.312,1.595c-0.244,0.981-0.572,2.015-0.916,3.106c-1.372,4.365-2.936,9.313-0.066,13.481
				c1.826,2.66,5.267,4.063,9.945,4.063c0.721,0,1.473-0.033,2.232-0.099c8.896-0.791,16.904-5.24,24.239-9.933
				c0.229-0.141,0.532-0.354,0.892-0.61c1.043-0.741,3.215-2.279,4.179-2.279c0.065,0,0.096,0.008,0.103,0.008l0,0
				c0.013,0.02,0.102,0.175,0.074,0.639l-0.046,0.699c-0.04,0.594-0.083,1.184-0.085,1.779c-0.014,2.534,0.437,4.227,1.377,5.167
				c0.533,0.531,1.219,0.813,1.995,0.813c1.431,0,2.722-0.712,3.899-1.475c1.294-0.842,2.471-1.863,3.551-2.836l1.545-1.395
				c1.016-0.922,2.028-1.846,3.066-2.75c0.01,0.251,0.059,0.512,0.188,0.775c0.237,0.546,0.817,1.11,1.841,1.11l0,0
				c0.807-0.022,1.423-0.6,1.627-0.791c0.531-0.496,0.799-1.05,0.99-1.523c0.645-1.602,0.833-3.442,0.539-5.328
				C417.18,29.014,416.716,28.514,416.086,28.368z"/>
			<path fill="#00334E" d="M441.909,29.751c-0.113-0.737-0.585-1.235-1.215-1.38c-0.523-0.202-1.17-0.175-1.799,0.052
				c-0.181,0.057-0.352,0.127-0.47,0.193c-0.315,0.149-0.635,0.34-0.905,0.534c-0.734,0.531-1.344,1.163-1.938,1.777
				c-0.237,0.243-0.469,0.485-0.71,0.72c-0.508,0.49-1.048,0.933-1.628,1.398c-0.336,0.276-0.672,0.553-1.002,0.834
				c-0.29,0.251-0.576,0.499-0.863,0.752c-0.564,0.496-1.129,0.995-1.717,1.47c-1.573,1.262-2.299,1.398-2.535,1.398
				c-0.147,0-0.163-0.038-0.205-0.09c-0.408-0.636-0.073-3.018,1.063-5.552l1.277-2.814c0.563-1.248,1.128-2.493,1.684-3.743
				c1.546-3.462,3.345-7.564,4.932-11.772c0.54-1.445,1.047-2.906,1.546-4.364l0.585-1.676c0.593-1.683,1.271-3.587,0.764-5.52
				C438.454,0.735,437.627,0,436.557,0c-0.909,0-1.843,0.528-2.504,1.415c-0.956,1.273-1.25,2.965-1.512,4.456
				c-0.098,0.554-0.189,1.095-0.311,1.592l-0.262,1.05c-0.401,1.671-0.788,3.246-1.4,4.816c-0.271,0.695-0.539,1.391-0.809,2.091
				c-1.096,2.881-2.233,5.863-3.74,8.587c-2.271,4.107-7.3,14.114-4.904,18.188c0.48,0.803,1.482,1.769,3.542,1.769
				c1.44,0,2.781-0.747,3.899-1.475c1.22-0.799,2.308-1.709,3.559-2.836l1.537-1.395c1.014-0.922,2.037-1.846,3.067-2.75
				c0.009,0.243,0.062,0.504,0.188,0.763c0.229,0.551,0.809,1.123,1.84,1.123h0.007c0.538-0.017,1.071-0.275,1.619-0.791
				c0.532-0.498,0.802-1.05,0.995-1.523C442.018,33.471,442.208,31.629,441.909,29.751z"/>
		</g>
		<g>
			<path fill="#3B6E8F" d="M261.324,49.169c-1.382-0.305-3.041,0.591-3.679,1.946c-0.295,0.638-0.322,1.307-0.074,1.875
				c0.197,0.439,0.639,1.03,1.684,1.372c0.279,0.09,0.564,0.134,0.856,0.134c1.72,0,3.087-1.514,3.232-2.87
				C263.451,50.677,262.977,49.532,261.324,49.169z"/>
			<path fill="#3B6E8F" d="M269.143,49.169c-1.377-0.308-3.038,0.593-3.673,1.946c-0.294,0.638-0.327,1.303-0.073,1.875
				c0.188,0.438,0.631,1.03,1.677,1.372c0.277,0.09,0.563,0.134,0.856,0.134c1.724,0,3.092-1.514,3.239-2.87
				C271.268,50.677,270.793,49.532,269.143,49.169z"/>
			<path fill="#3B6E8F" d="M256.008,23.804c0.286,0,0.572-0.045,0.851-0.132c1.048-0.345,1.489-0.936,1.677-1.374
				c0.254-0.57,0.229-1.235-0.068-1.876c-0.629-1.354-2.296-2.248-3.678-1.943c-1.646,0.362-2.125,1.507-2.02,2.455
				C252.918,22.289,254.284,23.804,256.008,23.804z"/>
			<path fill="#3B6E8F" d="M297.389,26.231c-0.705,0.267-1.294,0.825-1.563,1.469c-0.223,0.323-0.401,0.659-0.516,0.96
				c-0.311,0.812-0.564,1.657-0.81,2.478l-0.115,0.393c-0.761,2.527-1.505,4.536-2.338,6.321c-1.033,2.2-2.552,4.22-3.894,5.938
				c-0.371,0.476-0.76,0.946-1.146,1.413l-0.709,0.859c-0.377,0.457-0.843,1.032-1.398,1.155c-0.107,0-0.279-0.169-0.523-0.974
				c-0.318-1.033-0.539-2.07-0.777-3.168c-0.08-0.399-0.163-0.806-0.256-1.208c-0.422-1.863-1.364-2.869-2.797-2.985
				c-1.224-0.103-2.417,0.524-2.836,1.528c-0.064,0.15-0.113,0.305-0.146,0.452c-0.181,0.947,0.261,1.824,0.612,2.532
				c0.115,0.224,0.221,0.443,0.303,0.655c0.295,0.753,0.541,1.551,0.775,2.316c0.133,0.424,0.269,0.848,0.403,1.262
				c0.121,0.362,0.22,0.733,0.317,1.11c0.229,0.866,0.465,1.763,0.957,2.59c0.271,0.474,0.598,0.847,0.989,1.147
				c0.63,0.487,1.53,0.79,2.36,0.79c0.364,0,0.697-0.058,0.992-0.172c1.323-0.507,2.494-1.824,3.354-2.78
				c1.449-1.609,2.655-3.377,3.637-4.896c1.932-2.953,3.68-6.088,5.195-9.331c0.373-0.796,1.078-2.429,1.24-2.786
				c2.006-4.381,1.303-5.932,1.07-6.245C299.227,26.141,298.385,25.847,297.389,26.231z"/>
			<path fill="#3B6E8F" d="M272.879,28.371c-0.523-0.202-1.178-0.175-1.8,0.046c-0.183,0.063-0.352,0.137-0.466,0.199
				c-0.318,0.149-0.639,0.34-0.908,0.534c-0.735,0.531-1.349,1.163-1.938,1.777c-0.237,0.243-0.475,0.485-0.714,0.72
				c-0.505,0.489-1.044,0.93-1.617,1.396c-0.343,0.275-0.679,0.551-1.015,0.837c-0.284,0.248-0.57,0.499-0.857,0.749
				c-0.564,0.499-1.137,1-1.725,1.476c-0.205,0.163-0.409,0.34-0.617,0.523c-0.75,0.644-1.519,1.306-2.32,1.458
				c-0.261,0.046-0.408-0.06-0.432-0.103c-0.361-0.541-0.307-1.355-0.262-2.141l0.023-0.42c0.017-0.39,0.09-0.814,0.172-1.268
				c0.18-1.029,0.385-2.191-0.057-3.29c-0.354-0.897-1.17-1.644-2.221-2.042c-0.323-0.123-0.659-0.186-0.994-0.186
				c-0.803,0-1.498,0.342-2.078,0.679c-0.26,0.153-0.505,0.325-0.754,0.499l-0.267,0.188c-0.939,0.644-1.726,1.153-2.469,1.608
				l-0.304,0.18c-1.456,0.867-3.061,1.689-4.917,2.519c-1.731,0.776-1.731,0.776-5.256,2.162l-0.101,0.043
				c-2.115,0.834-4.307,1.697-6.486,2.448c-3.555,1.221-7.031,2.216-10.328,2.953c-7.67,1.716-14.673,1.527-19.643-0.598
				c-2.199-0.941-3.516-2.418-3.903-4.384c-0.45-2.257,0.678-4.841,1.67-7.12c0.18-0.403,0.349-0.802,0.513-1.187
				c0.771-1.864,1.581-3.714,2.396-5.568c1.352-3.094,2.75-6.3,3.969-9.532c0.523-1.388,1.006-2.786,1.489-4.189l0.646-1.854
				c0.594-1.679,1.268-3.583,0.767-5.516C209.758,0.735,208.926,0,207.855,0c-0.908,0-1.843,0.528-2.502,1.415
				c-0.951,1.272-1.246,2.965-1.505,4.456c-0.092,0.554-0.191,1.095-0.313,1.592l-0.261,1.057c-0.409,1.667-0.794,3.239-1.404,4.809
				c-0.273,0.704-0.548,1.416-0.818,2.125l-0.67,1.747c-0.902,2.333-2.047,4.607-3.159,6.809c-0.981,1.944-1.996,3.95-2.846,6.012
				c-0.782,1.88-1.668,4.015-1.938,6.23c-0.3,2.456,0.262,4.815,1.573,6.641c0.711,0.995,1.829,1.977,2.982,2.623
				c1.063,0.599,2.191,1.08,3.255,1.391c2.919,0.847,6.078,1.277,9.404,1.277c5.054,0,10.568-0.941,17.358-2.963l1.446-0.428
				c1.843-0.546,3.756-1.11,5.612-1.746c0.622-0.212,1.243-0.43,1.864-0.647c2.191-0.791,4.4-1.651,6.478-2.467
				c3.18-1.255,4.816-2.153,8.757-4.329l1.261-0.694c0.735-0.401,1.095-0.434,1.175-0.49c0.075,0.136,0.035,0.629,0.016,0.835
				l-0.07,0.99c-0.033,0.58-0.078,1.161-0.078,1.742c-0.006,2.533,0.447,4.225,1.387,5.165c0.523,0.531,1.215,0.813,1.987,0.813
				c1.439,0,2.78-0.747,3.9-1.475c1.292-0.842,2.47-1.863,3.558-2.836l1.502-1.359c1.024-0.932,2.055-1.871,3.102-2.785
				c0.01,0.252,0.063,0.518,0.195,0.787c0.236,0.536,0.816,1.099,1.834,1.099l0,0c0.807-0.022,1.422-0.6,1.619-0.791
				c0.53-0.485,0.792-1.016,0.996-1.523c0.652-1.608,0.835-3.449,0.539-5.332C273.94,28.809,273.297,28.463,272.879,28.371z"/>
			<path fill="#3B6E8F" d="M336.161,37.47c-0.563-0.893-1.252-1.782-2.066-2.641c-0.804-0.851-1.664-1.654-2.539-2.383
				c-0.871-0.728-1.782-1.407-2.703-2.018c-3.001-1.969-6.225-3.789-9.479-3.789c-0.743,0-1.447,0.1-2.118,0.295
				c-0.743,0.22-1.39,0.581-1.872,1.03c-0.785,0.616-1.178,1.595-1.341,2.12c-0.515,1.676-0.347,3.547,0.506,5.562
				c0.835,1.968-0.016,3.353-1.512,5.403c-1.497,2.07-4.526,0.64-4.862-1.413c-0.409-2.569,0.695-5.48,1.726-7.778l1.194-2.637
				c0.588-1.305,1.182-2.613,1.767-3.921c1.546-3.459,3.342-7.559,4.931-11.772c0.514-1.371,0.995-2.753,1.472-4.141l0.663-1.903
				c0.594-1.679,1.267-3.583,0.766-5.516C320.372,0.735,319.541,0,318.47,0c-0.907,0-1.841,0.528-2.506,1.415
				c-0.954,1.273-1.249,2.965-1.505,4.456c-0.098,0.555-0.188,1.095-0.315,1.592l-0.257,1.059c-0.409,1.666-0.791,3.237-1.403,4.807
				c-0.273,0.701-0.542,1.405-0.813,2.108c-1.1,2.875-2.229,5.852-3.732,8.57c-0.287,0.523-0.59,1.052-0.892,1.584
				c-2.184,3.848-4.442,7.825-4.411,12.396c0.012,2.146,0.818,4.114,1.971,5.892c2.107,3.249,6.42,4.029,9.47,1.656
				c0.809-0.629,1.554-1.432,2.159-2.259c1.176-1.611,2.189-2.999,4.046-3.049c1.22,0,2.443,0.732,3.628,1.442
				c0.225,0.132,0.443,0.265,0.658,0.388c0.418,0.242,0.816,0.537,1.235,0.849c0.192,0.146,0.383,0.288,0.585,0.43
				c0.648,0.46,1.262,0.879,1.852,1.266c1.429,0.869,2.805,1.311,4.094,1.311c1.793,0,3.32-0.878,4.166-2.401
				C337.493,41.717,337.365,39.405,336.161,37.47z M332.122,41.48c-0.393,0.255-0.955,0.127-1.703-0.383
				c-0.527-0.368-1.193-0.826-1.992-1.363c-0.801-0.54-1.619-1.089-2.47-1.641c-1.276-0.822-2.534-1.646-3.934-2.243
				c-1.112-0.477-2.338-0.896-3.017-1.979c-0.654-1.042-0.539-2.686,0.784-3.118c1.424-0.464,2.919,0.681,4.089,1.313
				c2.559,1.384,4.718,3.211,6.566,5.173c0.654,0.698,1.178,1.373,1.568,2.026c0.215,0.338,0.354,0.752,0.428,1.231
				C332.506,40.983,332.407,41.311,332.122,41.48z"/>
		</g>
	</g>
	<path fill="#00334E" d="M85.729,110.729c-1.136-4.506-2.122-9.014-1.61-13.633c0.411-3.698,2.834-8.75-0.292-12.025
		c-3.241-3.394-7.304-3.392-11.601-2.02c-9.638,3.076-19.644,11.514-25.308,19.316c-1.907,2.625-3.876,7.12-1.867,10.212
		c7.782,11.958,27.048-13.671,33.044-7.415c1.343,1.4,1.843,4.839,2.469,6.659C81.495,114.527,86.437,113.533,85.729,110.729z
		 M71.36,99.613c-2.753,2.207-14.981,12.677-19.346,8.501c-0.083-0.079-0.158-0.161-0.225-0.246
		c-2.147-2.723,3.998-7.987,5.639-9.552c3.503-3.336,7.498-6.2,11.688-8.692c2.13-1.268,5.918-3.485,8.563-2.416
		C83.9,89.723,73.434,97.949,71.36,99.613z"/>
	<path fill="#3B6E8F" d="M288.839,110.729c-1.137-4.506-2.123-9.014-1.61-13.633c0.411-3.698,2.835-8.75-0.292-12.025
		c-3.241-3.394-7.305-3.392-11.602-2.02c-9.639,3.076-19.644,11.514-25.309,19.316c-1.906,2.625-3.876,7.12-1.867,10.212
		c7.782,11.958,27.049-13.671,33.045-7.415c1.344,1.4,1.844,4.839,2.469,6.659C284.605,114.527,289.546,113.533,288.839,110.729z
		 M274.47,99.613c-2.754,2.207-14.982,12.677-19.347,8.501c-0.083-0.079-0.158-0.161-0.226-0.246
		c-2.146-2.723,3.998-7.987,5.64-9.552c3.503-3.336,7.498-6.2,11.688-8.692c2.13-1.268,5.918-3.485,8.563-2.416
		C287.009,89.723,276.544,97.949,274.47,99.613z"/>
	<path fill="#3B6E8F" d="M442.21,110.729c-1.137-4.506-2.123-9.014-1.61-13.633c0.411-3.698,2.835-8.75-0.292-12.025
		c-3.241-3.394-7.305-3.392-11.602-2.02c-9.639,3.076-19.644,11.514-25.309,19.316c-1.906,2.625-3.876,7.12-1.867,10.212
		c7.782,11.958,27.049-13.671,33.045-7.415c1.344,1.4,1.844,4.839,2.469,6.659C437.976,114.527,442.917,113.533,442.21,110.729z
		 M427.841,99.613c-2.754,2.207-14.982,12.677-19.347,8.501c-0.083-0.079-0.158-0.161-0.226-0.246
		c-2.146-2.723,3.998-7.987,5.64-9.552c3.503-3.336,7.498-6.2,11.688-8.692c2.13-1.268,5.918-3.485,8.563-2.416
		C440.38,89.723,429.916,97.949,427.841,99.613z"/>
</g>
</svg>
